The Double (2011) 1080p MKV x264 AC3+DTS Eng NL Subs
.
[IMG]http://img842.imageshack.us/img842/9440/maljjaado.jpg[/IMG]
.
Verenigde Staten
Misdaad / Thriller
98 minuten

geregisseerd door Michael Brandt
met Richard Gere, Topher Grace en Stephen Moyer

De gepensioneerde CIA agent Paul Shepherdson (Gere) wordt opnieuw aan het werk gezet door de jonge, ambitieuze FBI agent Ben Geary (Grace) om de mysterieuze moord op te lossen van een Amerikaanse senator. De voormalige CIA agent wordt bij de moordzaak betrokken vanwege zijn extensieve kennis over een oud-Russische huurmoordenaar genaamd ôCassiusö (Moyer) wiens werkwijze identiek overeenkomt met de moord op de senator. Agent Shepherdson krijgt hiermee ÚÚn laatste kans om deze beruchte moordenaar te vatten die al jarenlang arrestatie heeft weten te vermijden.
. 
http://www.moviemeter.nl/film/78834
.
PLOT
.
A retired CIA operative is paired with a young FBI agent to unravel the mystery of a senator's murder, with all signs pointing to a Soviet assassin. 
. 
http://www.imdb.com/title/tt1646980/
.
INFO
.
Movie..............: The Double (2011)
Genre..............: Misdaad / Thriller
Source.............: The.Double.2011.1080p.BluRay.x264-HD4U
Runtime............: 98 min.
Format.............: x264 (MKV)
Beeld..............: 1080p 1920x824
Audio..............: English AC3+DTS
Subs...............: Dutch, English, English FHI
Subtitles.NL.......: Vertaald door Markow87 en Suurtje Thnx Team Good Job *****
Controle...........: Suurtje Klasse weer M8tinnetje
Bewerking+Resync...: Suurtje. 
.
Enjoy
.
Format                           : Matroska
Format version                   : Version 2
File size                        : 6.99 GiB
Duration                         : 1h 38mn
Overall bit rate                 : 10.2 Mbps
Encoded date                     : UTC 2012-01-15 11:51:49
Writing application              : mkvmerge v5.2.0 ('I can't explain') built on Dec 18 2011 18:12:03
Writing library                  : libebml v1.2.3 + libmatroska v1.3.0

Video
ID                               : 1
Format                           : AVC
Format/Info                      : Advanced Video Codec
Format profile                   : High@L4.1
Format settings, CABAC           : Yes
Format settings, ReFrames        : 5 frames
Codec ID                         : V_MPEG4/ISO/AVC
Duration                         : 1h 38mn
Bit rate                         : 8 032 Kbps
Width                            : 1 920 pixels
Height                           : 824 pixels
Display aspect ratio             : 2.35:1
Frame rate                       : 23.976 fps
Color space                      : YUV
Chroma subsampling               : 4:2:0
Bit depth                        : 8 bits
Scan type                        : Progressive
Bits/(Pixel*Frame)               : 0.212
Stream size                      : 5.37 GiB (77%)
Writing library                  : x264 core 120 r2120 0c7dab9
Encoding settings                : cabac=1 / ref=5 / deblock=1:0:0 / analyse=0x3:0x133 / me=umh / subme=7 / psy=1 / psy_rd=1.00:0.00 / mixed_ref=1 / me_range=16 / chroma_me=1 / trellis=1 / 8x8dct=1 / cqm=0 / deadzone=21,11 / fast_pskip=0 / chroma_qp_offset=-2 / threads=12 / sliced_threads=0 / nr=0 / decimate=1 / interlaced=0 / bluray_compat=0 / constrained_intra=0 / bframes=3 / b_pyramid=2 / b_adapt=1 / b_bias=0 / direct=1 / weightb=1 / open_gop=0 / weightp=2 / keyint=250 / keyint_min=23 / scenecut=40 / intra_refresh=0 / rc_lookahead=40 / rc=2pass / mbtree=1 / bitrate=8032 / ratetol=1.0 / qcomp=0.60 / qpmin=0 / qpmax=69 / qpstep=4 / cplxblur=20.0 / qblur=0.5 / ip_ratio=1.40 / aq=1:1.00
Language                         : English
Default                          : Yes
Forced                           : No

Audio #1
ID                               : 2
Format                           : DTS
Format/Info                      : Digital Theater Systems
Codec ID                         : A_DTS
Duration                         : 1h 38mn
Bit rate mode                    : Constant
Bit rate                         : 1 510 Kbps
Channel(s)                       : 6 channels
Channel positions                : Front: L C R, Side: L R, LFE
Sampling rate                    : 48.0 KHz
Bit depth                        : 24 bits
Compression mode                 : Lossy
Stream size                      : 1.04 GiB (15%)
Language                         : English
Default                          : Yes
Forced                           : No

Audio #2
ID                               : 3
Format                           : AC-3
Format/Info                      : Audio Coding 3
Mode extension                   : CM (complete main)
Codec ID                         : A_AC3
Duration                         : 1h 38mn
Bit rate mode                    : Constant
Bit rate                         : 640 Kbps
Channel(s)                       : 6 channels
Channel positions                : Front: L C R, Side: L R, LFE
Sampling rate                    : 48.0 KHz
Bit depth                        : 16 bits
Compression mode                 : Lossy
Stream size                      : 450 MiB (6%)
Default                          : No
Forced                           : No

Text #1
ID                               : 4
Format                           : UTF-8
Codec ID                         : S_TEXT/UTF8
Codec ID/Info                    : UTF-8 Plain Text
Title                            : Nederlands
Language                         : Dutch
Default                          : Yes
Forced                           : No

Text #2
ID                               : 5
Format                           : UTF-8
Codec ID                         : S_TEXT/UTF8
Codec ID/Info                    : UTF-8 Plain Text
Language                         : English
Default                          : No
Forced                           : No

Text #3
ID                               : 6
Format                           : UTF-8
Codec ID                         : S_TEXT/UTF8
Codec ID/Info                    : UTF-8 Plain Text
Title                            : English FHI
Language                         : English
Default                          : No
Forced                           : No


